<mxfile host="65bd71144e">
    <diagram id="5pHp6l1Uz-cJNWnu8SsC" name="Page-1">
        <mxGraphModel dx="2365" dy="654" grid="1" gridSize="5" guides="1" tooltips="1" connect="1" arrows="1" fold="1" page="1" pageScale="1" pageWidth="1169" pageHeight="827" math="0" shadow="0">
            <root>
                <mxCell id="0"/>
                <mxCell id="1" parent="0"/>
                <mxCell id="89" value="" style="rounded=0;whiteSpace=wrap;html=1;labelBackgroundColor=none;strokeColor=#000000;strokeWidth=2;fontSize=20;fontColor=#000000;fillColor=#FFFFFF;gradientColor=none;movable=0;resizable=0;rotatable=0;deletable=0;editable=0;connectable=0;" vertex="1" parent="1">
                    <mxGeometry x="-1105" y="75" width="370" height="810" as="geometry"/>
                </mxCell>
                <mxCell id="16" value="" style="rounded=0;whiteSpace=wrap;html=1;verticalAlign=bottom;movable=0;resizable=0;rotatable=0;deletable=0;editable=0;connectable=0;fillColor=#000000;strokeColor=#000000;gradientColor=none;strokeWidth=2;" parent="1" vertex="1">
                    <mxGeometry x="-1100" y="80" width="360" height="800" as="geometry"/>
                </mxCell>
                <mxCell id="34" value="" style="rounded=0;whiteSpace=wrap;html=1;fillColor=#000000;fontSize=15;movable=0;resizable=0;rotatable=0;deletable=0;editable=0;connectable=0;strokeWidth=1;" parent="1" vertex="1">
                    <mxGeometry x="-600" y="80" width="360" height="520" as="geometry"/>
                </mxCell>
                <mxCell id="50" value="&lt;div style=&quot;font-size: 10px;&quot;&gt;&lt;font color=&quot;#ffffff&quot; style=&quot;font-size: 10px;&quot;&gt;&lt;br&gt;&lt;/font&gt;&lt;/div&gt;&lt;div style=&quot;font-size: 10px;&quot;&gt;&lt;font color=&quot;#ffffff&quot; style=&quot;font-size: 10px;&quot;&gt;&amp;nbsp;&lt;u style=&quot;font-size: 10px;&quot;&gt;Displays published comments on posts OR a &quot;Leave a Comment&quot; message.&lt;/u&gt;&lt;/font&gt;&lt;/div&gt;&lt;p style=&quot;font-size: 10px;&quot;&gt;&lt;/p&gt;&lt;ol style=&quot;font-size: 10px;&quot;&gt;&lt;li style=&quot;font-size: 10px;&quot;&gt;&lt;font color=&quot;#ffffff&quot; style=&quot;font-size: 10px;&quot;&gt;Lorem ipsum dolor sit amet, consectetur adipisicing elit, sed do eiusmod tempor incididunt ut labore et dolore magna aliqua.&lt;/font&gt;&lt;/li&gt;&lt;li style=&quot;font-size: 10px;&quot;&gt;&lt;font style=&quot;font-size: 10px;&quot; color=&quot;#ffffff&quot;&gt;Lorem ipsum dolor sit amet, consectetur adipisicing elit, sed do eiusmod tempor incididunt ut labore et dolore magna aliqua.&lt;/font&gt;&lt;/li&gt;&lt;li style=&quot;font-size: 10px;&quot;&gt;&lt;font style=&quot;font-size: 10px;&quot; color=&quot;#ffffff&quot;&gt;Lorem ipsum dolor sit amet, consectetur adipisicing elit, sed do eiusmod tempor incididunt ut labore et dolore magna aliqua.&lt;/font&gt;&lt;/li&gt;&lt;/ol&gt;&lt;p style=&quot;font-size: 10px;&quot;&gt;&lt;/p&gt;" style="text;html=1;strokeColor=#FFFFFF;fillColor=#18141D;spacing=5;spacingTop=-20;whiteSpace=wrap;overflow=hidden;rounded=0;strokeWidth=1;fontSize=10;verticalAlign=middle;fontFamily=Comic Sans MS;movable=0;resizable=0;rotatable=0;deletable=0;editable=0;connectable=0;align=left;" parent="1" vertex="1">
                    <mxGeometry x="-600" y="80" width="360" height="140" as="geometry"/>
                </mxCell>
                <mxCell id="51" value="&lt;font style=&quot;font-size: 11px;&quot;&gt;Like&lt;/font&gt;" style="rounded=1;whiteSpace=wrap;html=1;strokeColor=#FFFFFF;strokeWidth=1;fontSize=11;fillColor=#0050ef;fontColor=#ffffff;verticalAlign=middle;movable=0;resizable=0;rotatable=0;deletable=0;editable=0;connectable=0;" parent="1" vertex="1">
                    <mxGeometry x="-590" y="225" width="35" height="20" as="geometry"/>
                </mxCell>
                <mxCell id="52" value="&lt;font style=&quot;font-size: 9px;&quot;&gt;Likes Count&lt;/font&gt;" style="text;html=1;strokeColor=none;fillColor=none;align=center;verticalAlign=middle;whiteSpace=wrap;rounded=0;strokeWidth=1;fontSize=15;movable=0;resizable=0;rotatable=0;deletable=0;editable=0;connectable=0;" parent="1" vertex="1">
                    <mxGeometry x="-540" y="225" width="55" height="22.5" as="geometry"/>
                </mxCell>
                <mxCell id="53" value="Comment Button" style="rounded=1;whiteSpace=wrap;html=1;strokeColor=#FFFFFF;strokeWidth=1;fontSize=11;movable=0;resizable=0;rotatable=0;deletable=0;editable=0;connectable=0;" parent="1" vertex="1">
                    <mxGeometry x="-465" y="225" width="105" height="20" as="geometry"/>
                </mxCell>
                <mxCell id="56" value="&lt;div style=&quot;font-size: 10px;&quot;&gt;&lt;font color=&quot;#ffffff&quot; style=&quot;font-size: 10px;&quot;&gt;&lt;u style=&quot;font-size: 10px;&quot;&gt;&lt;br&gt;&lt;/u&gt;&lt;/font&gt;&lt;/div&gt;&lt;div style=&quot;font-size: 10px;&quot;&gt;&lt;font color=&quot;#ffffff&quot; style=&quot;font-size: 10px;&quot;&gt;&lt;u style=&quot;font-size: 10px;&quot;&gt;Displays published comments on comments OR a &quot;Leave a Comment&quot; message.&lt;/u&gt;&lt;/font&gt;&lt;/div&gt;&lt;p style=&quot;font-size: 10px;&quot;&gt;&lt;/p&gt;&lt;ol style=&quot;font-size: 10px;&quot;&gt;&lt;li style=&quot;font-size: 10px;&quot;&gt;&lt;font color=&quot;#ffffff&quot; style=&quot;font-size: 10px;&quot;&gt;Lorem ipsum dolor sit amet, consectetur adipisicing elit, sed do eiusmod tempor incididunt ut labore et dolore magna aliqua.&lt;/font&gt;&lt;/li&gt;&lt;li style=&quot;font-size: 10px;&quot;&gt;&lt;font style=&quot;font-size: 10px;&quot; color=&quot;#ffffff&quot;&gt;Lorem ipsum dolor sit amet, consectetur adipisicing elit, sed do eiusmod tempor incididunt ut labore et dolore magna aliqua.&lt;/font&gt;&lt;/li&gt;&lt;li style=&quot;font-size: 10px;&quot;&gt;&lt;font style=&quot;font-size: 10px;&quot; color=&quot;#ffffff&quot;&gt;Lorem ipsum dolor sit amet, consectetur adipisicing elit, sed do eiusmod tempor incididunt ut labore et dolore magna aliqua.&lt;/font&gt;&lt;/li&gt;&lt;/ol&gt;&lt;p style=&quot;font-size: 10px;&quot;&gt;&lt;/p&gt;" style="text;html=1;strokeColor=#FFFFFF;fillColor=#18141D;spacing=5;spacingTop=-20;whiteSpace=wrap;overflow=hidden;rounded=0;strokeWidth=1;fontSize=10;verticalAlign=middle;fontFamily=Comic Sans MS;movable=0;resizable=0;rotatable=0;deletable=0;editable=0;connectable=0;align=left;" parent="1" vertex="1">
                    <mxGeometry x="-600" y="340" width="360" height="145" as="geometry"/>
                </mxCell>
                <mxCell id="57" value="&lt;h1&gt;&lt;span style=&quot;color: rgb(255, 255, 255); font-family: &amp;quot;Comic Sans MS&amp;quot;; font-size: 11px; font-weight: 400;&quot;&gt;Dropdown box for commenting on posts actioned by comment button or message to say maximum comments had been reached&lt;/span&gt;&lt;br&gt;&lt;/h1&gt;" style="text;html=1;strokeColor=default;fillColor=#18141D;spacing=5;spacingTop=-20;whiteSpace=wrap;overflow=hidden;rounded=0;fontSize=11;verticalAlign=bottom;strokeWidth=1;movable=0;resizable=0;rotatable=0;deletable=0;editable=0;connectable=0;" parent="1" vertex="1">
                    <mxGeometry x="-582.5" y="255" width="342.5" height="70" as="geometry"/>
                </mxCell>
                <mxCell id="58" value="&lt;font style=&quot;font-size: 11px;&quot;&gt;Like&lt;/font&gt;" style="rounded=1;whiteSpace=wrap;html=1;strokeColor=#FFFFFF;strokeWidth=1;fontSize=11;fillColor=#0050ef;fontColor=#ffffff;verticalAlign=middle;movable=0;resizable=0;rotatable=0;deletable=0;editable=0;connectable=0;" parent="1" vertex="1">
                    <mxGeometry x="-590" y="485" width="35" height="20" as="geometry"/>
                </mxCell>
                <mxCell id="59" value="&lt;font style=&quot;font-size: 9px;&quot;&gt;Likes Count&lt;/font&gt;" style="text;html=1;strokeColor=none;fillColor=none;align=center;verticalAlign=middle;whiteSpace=wrap;rounded=0;strokeWidth=1;fontSize=15;movable=0;resizable=0;rotatable=0;deletable=0;editable=0;connectable=0;" parent="1" vertex="1">
                    <mxGeometry x="-544.5" y="483.75" width="65" height="22.5" as="geometry"/>
                </mxCell>
                <mxCell id="60" value="Comment Button" style="rounded=1;whiteSpace=wrap;html=1;strokeColor=#FFFFFF;strokeWidth=1;fontSize=11;movable=0;resizable=0;rotatable=0;deletable=0;editable=0;connectable=0;" parent="1" vertex="1">
                    <mxGeometry x="-465" y="483.75" width="105" height="20" as="geometry"/>
                </mxCell>
                <mxCell id="62" value="&lt;h1&gt;&lt;span style=&quot;color: rgb(255, 255, 255); font-family: &amp;quot;Comic Sans MS&amp;quot;; font-size: 11px; font-weight: 400;&quot;&gt;Dropdown box for commenting on posts actioned by comment button or message to say maximum comments had been reached&lt;/span&gt;&lt;br&gt;&lt;/h1&gt;" style="text;html=1;strokeColor=default;fillColor=#18141D;spacing=5;spacingTop=-20;whiteSpace=wrap;overflow=hidden;rounded=0;fontSize=11;verticalAlign=bottom;strokeWidth=1;movable=0;resizable=0;rotatable=0;deletable=0;editable=0;connectable=0;" parent="1" vertex="1">
                    <mxGeometry x="-590" y="515" width="350" height="80" as="geometry"/>
                </mxCell>
                <mxCell id="63" value="&lt;div style=&quot;&quot;&gt;&lt;br&gt;&lt;/div&gt;&lt;font style=&quot;font-size: 12px;&quot;&gt;&lt;div style=&quot;&quot;&gt;&lt;span style=&quot;&quot;&gt;Post Detail - Mobile view&lt;/span&gt;&lt;/div&gt;&lt;span style=&quot;border-color: rgb(0, 0, 0); color: rgb(240, 240, 240); font-family: Helvetica; font-style: normal; font-variant-ligatures: normal; font-variant-caps: normal; letter-spacing: normal; orphans: 2; text-indent: 0px; text-transform: none; widows: 2; word-spacing: 0px; -webkit-text-stroke-width: 0px; background-color: rgb(42, 37, 47);&quot;&gt;&lt;div style=&quot;&quot;&gt;Mobile view based on Samsung Galaxy S20 Screen: 360 x 800&lt;/div&gt;&lt;/span&gt;&lt;/font&gt;&lt;div style=&quot;&quot;&gt;&lt;br&gt;&lt;/div&gt;" style="text;html=1;align=left;verticalAlign=middle;resizable=0;points=[];autosize=1;strokeColor=none;fillColor=none;fontStyle=0;movable=0;rotatable=0;deletable=0;editable=0;connectable=0;" parent="1" vertex="1">
                    <mxGeometry x="-1100" y="5" width="355" height="75" as="geometry"/>
                </mxCell>
                <mxCell id="64" value="&lt;div style=&quot;font-size: 12px;&quot;&gt;&lt;span style=&quot;font-size: 12px; background-color: initial;&quot;&gt;Post Detail - Expanded Comments, Mobile view&lt;/span&gt;&lt;/div&gt;&lt;span style=&quot;font-size: 12px;&quot;&gt;Mobile view based on Samsung Galaxy S20 Screen: 360 x 800&lt;/span&gt;" style="text;html=1;align=left;verticalAlign=middle;resizable=0;points=[];autosize=1;strokeColor=none;fillColor=none;fontSize=12;fontStyle=0;movable=0;rotatable=0;deletable=0;editable=0;connectable=0;" parent="1" vertex="1">
                    <mxGeometry x="-600" y="5" width="355" height="75" as="geometry"/>
                </mxCell>
                <mxCell id="67" value="" style="html=1;verticalLabelPosition=bottom;align=center;labelBackgroundColor=#ffffff;verticalAlign=top;strokeWidth=2;strokeColor=#0080F0;shadow=0;dashed=0;shape=mxgraph.ios7.icons.pen;movable=0;resizable=0;rotatable=0;deletable=0;editable=0;connectable=0;" parent="1" vertex="1">
                    <mxGeometry x="-290" y="470" width="12" height="12" as="geometry"/>
                </mxCell>
                <mxCell id="68" value="" style="html=1;verticalLabelPosition=bottom;align=center;labelBackgroundColor=#ffffff;verticalAlign=top;strokeWidth=2;strokeColor=#0080F0;shadow=0;dashed=0;shape=mxgraph.ios7.icons.pen;fontSize=3;movable=0;resizable=0;rotatable=0;deletable=0;editable=0;connectable=0;" parent="1" vertex="1">
                    <mxGeometry x="-285" y="205.5" width="12" height="12" as="geometry"/>
                </mxCell>
                <mxCell id="70" value="&lt;font style=&quot;font-size: 15px;&quot;&gt;&lt;span style=&quot;&quot;&gt;Conditional display of&lt;/span&gt;&lt;br style=&quot;&quot;&gt;&lt;span style=&quot;&quot;&gt;&quot;Pen Icon&quot; and &quot;Trash Icon&quot;,&lt;/span&gt;&lt;br style=&quot;&quot;&gt;&lt;span style=&quot;&quot;&gt;showing edit / delete facility,&lt;/span&gt;&lt;br style=&quot;&quot;&gt;&lt;span style=&quot;&quot;&gt;only visible to comment author.&lt;/span&gt;&lt;/font&gt;" style="text;html=1;align=left;verticalAlign=middle;resizable=0;points=[];autosize=1;strokeColor=none;fillColor=none;movable=0;rotatable=0;deletable=0;editable=0;connectable=0;" parent="1" vertex="1">
                    <mxGeometry x="-230" y="280" width="225" height="90" as="geometry"/>
                </mxCell>
                <mxCell id="71" value="" style="html=1;verticalLabelPosition=bottom;align=center;labelBackgroundColor=#ffffff;verticalAlign=bottom;strokeWidth=2;strokeColor=#0080F0;shadow=0;dashed=0;shape=mxgraph.ios7.icons.trashcan;fontSize=4;movable=0;resizable=0;rotatable=0;deletable=0;editable=0;connectable=0;" parent="1" vertex="1">
                    <mxGeometry x="-260" y="205.5" width="12" height="12" as="geometry"/>
                </mxCell>
                <mxCell id="72" value="" style="html=1;verticalLabelPosition=bottom;align=center;labelBackgroundColor=#ffffff;verticalAlign=top;strokeWidth=2;strokeColor=#0080F0;shadow=0;dashed=0;shape=mxgraph.ios7.icons.trashcan;fontSize=4;movable=0;resizable=0;rotatable=0;deletable=0;editable=0;connectable=0;" parent="1" vertex="1">
                    <mxGeometry x="-260" y="470" width="12" height="12" as="geometry"/>
                </mxCell>
                <mxCell id="73" value="" style="rounded=0;whiteSpace=wrap;html=1;gradientColor=none;strokeWidth=0;movable=0;resizable=0;rotatable=0;deletable=0;editable=0;connectable=0;fillColor=#999999;strokeColor=#000000;" vertex="1" parent="1">
                    <mxGeometry x="-1100" y="80" width="360" height="110" as="geometry"/>
                </mxCell>
                <mxCell id="74" value="" style="dashed=0;outlineConnect=0;html=1;align=center;labelPosition=center;verticalLabelPosition=bottom;verticalAlign=top;shape=mxgraph.weblogos.freshbump;fillColor=#C2D952;strokeColor=none;strokeWidth=0;movable=0;resizable=0;rotatable=0;deletable=0;editable=0;connectable=0;" vertex="1" parent="1">
                    <mxGeometry x="-1090" y="85" width="45" height="45" as="geometry"/>
                </mxCell>
                <mxCell id="75" value="Nav" style="whiteSpace=wrap;html=1;aspect=fixed;strokeWidth=2;fillColor=#999999;gradientColor=none;strokeColor=#000000;fontColor=#000000;movable=0;resizable=0;rotatable=0;deletable=0;editable=0;connectable=0;" vertex="1" parent="1">
                    <mxGeometry x="-1090" y="135" width="40" height="40" as="geometry"/>
                </mxCell>
                <mxCell id="76" value="&lt;span style=&quot;font-family: Helvetica; font-size: 31px; font-style: normal; font-variant-ligatures: normal; font-variant-caps: normal; font-weight: 400; letter-spacing: normal; orphans: 2; text-indent: 0px; text-transform: none; widows: 2; word-spacing: 0px; -webkit-text-stroke-width: 0px; text-decoration-thickness: initial; text-decoration-style: initial; text-decoration-color: initial; float: none; display: inline !important;&quot;&gt;The Foraging link&lt;/span&gt;" style="text;html=1;strokeColor=none;fillColor=none;align=right;verticalAlign=middle;whiteSpace=wrap;rounded=0;strokeWidth=0;fontColor=#000000;fontSize=31;movable=0;resizable=0;rotatable=0;deletable=0;editable=0;connectable=0;" vertex="1" parent="1">
                    <mxGeometry x="-1040" y="81.25" width="275" height="52.5" as="geometry"/>
                </mxCell>
                <mxCell id="77" value="Search" style="strokeWidth=2;shadow=0;dashed=0;align=center;html=1;shape=mxgraph.mockup.forms.searchBox;strokeColor=#000000;mainText=;strokeColor2=#008cff;fontColor=#666666;fontSize=17;align=left;spacingLeft=3;labelBackgroundColor=none;fillColor=none;gradientColor=none;movable=0;resizable=0;rotatable=0;deletable=0;editable=0;connectable=0;" vertex="1" parent="1">
                    <mxGeometry x="-1005" y="135" width="245" height="40" as="geometry"/>
                </mxCell>
                <mxCell id="78" value="&lt;font style=&quot;font-size: 20px;&quot;&gt;Featured Image&lt;/font&gt;" style="rounded=0;whiteSpace=wrap;html=1;labelBackgroundColor=none;strokeColor=#000000;strokeWidth=0;fontSize=31;fontColor=#000000;fillColor=#999999;gradientColor=none;movable=0;resizable=0;rotatable=0;deletable=0;editable=0;connectable=0;" vertex="1" parent="1">
                    <mxGeometry x="-1100" y="187.5" width="360" height="197.5" as="geometry"/>
                </mxCell>
                <mxCell id="79" value="&lt;font style=&quot;font-size: 20px;&quot;&gt;Post Content&lt;/font&gt;" style="rounded=0;whiteSpace=wrap;html=1;labelBackgroundColor=none;strokeColor=#000000;strokeWidth=0;fontSize=31;fontColor=#000000;fillColor=#999999;gradientColor=none;movable=0;resizable=0;rotatable=0;deletable=0;editable=0;connectable=0;" vertex="1" parent="1">
                    <mxGeometry x="-1100" y="385" width="360" height="260" as="geometry"/>
                </mxCell>
                <mxCell id="81" value="" style="rounded=0;whiteSpace=wrap;html=1;labelBackgroundColor=none;strokeColor=#000000;strokeWidth=2;fontSize=20;fontColor=#000000;fillColor=#999999;gradientColor=none;movable=0;resizable=0;rotatable=0;deletable=0;editable=0;connectable=0;" vertex="1" parent="1">
                    <mxGeometry x="-1100" y="830" width="360" height="50" as="geometry"/>
                </mxCell>
                <mxCell id="82" value="&lt;font style=&quot;font-size: 15px;&quot;&gt;Footer with Social Media Links&lt;/font&gt;" style="text;html=1;strokeColor=none;fillColor=none;align=center;verticalAlign=middle;whiteSpace=wrap;rounded=0;labelBackgroundColor=none;strokeWidth=0;fontSize=20;fontColor=#000000;movable=0;resizable=0;rotatable=0;deletable=0;editable=0;connectable=0;" vertex="1" parent="1">
                    <mxGeometry x="-1095" y="845" width="350" height="20" as="geometry"/>
                </mxCell>
                <mxCell id="83" value="Like" style="strokeWidth=0;shadow=0;dashed=0;align=center;html=1;shape=mxgraph.mockup.buttons.button;strokeColor=#666666;fontColor=#ffffff;mainText=;buttonStyle=round;fontSize=17;fontStyle=1;fillColor=#008cff;whiteSpace=wrap;labelBackgroundColor=none;movable=0;resizable=0;rotatable=0;deletable=0;editable=0;connectable=0;" vertex="1" parent="1">
                    <mxGeometry x="-1090" y="650" width="55" height="20" as="geometry"/>
                </mxCell>
                <mxCell id="84" value="Comment" style="strokeWidth=0;shadow=0;dashed=0;align=center;html=1;shape=mxgraph.mockup.buttons.button;strokeColor=#666666;fontColor=#ffffff;mainText=;buttonStyle=round;fontSize=17;fontStyle=1;fillColor=#008cff;whiteSpace=wrap;labelBackgroundColor=none;movable=0;resizable=0;rotatable=0;deletable=0;editable=0;connectable=0;" vertex="1" parent="1">
                    <mxGeometry x="-1005" y="650" width="115" height="20" as="geometry"/>
                </mxCell>
                <mxCell id="85" value="&lt;font style=&quot;font-size: 10px;&quot;&gt;Author&lt;/font&gt;" style="text;html=1;strokeColor=none;fillColor=none;align=center;verticalAlign=middle;whiteSpace=wrap;rounded=0;labelBackgroundColor=none;strokeWidth=0;fontSize=15;fontColor=#000000;movable=0;resizable=0;rotatable=0;deletable=0;editable=0;connectable=0;" vertex="1" parent="1">
                    <mxGeometry x="-1097.5" y="610" width="60" height="30" as="geometry"/>
                </mxCell>
                <mxCell id="86" value="Date and Time Posted" style="text;html=1;strokeColor=none;fillColor=none;align=center;verticalAlign=middle;whiteSpace=wrap;rounded=0;labelBackgroundColor=none;strokeWidth=0;fontSize=10;fontColor=#000000;movable=0;resizable=0;rotatable=0;deletable=0;editable=0;connectable=0;" vertex="1" parent="1">
                    <mxGeometry x="-1020" y="610" width="135" height="30" as="geometry"/>
                </mxCell>
                <mxCell id="87" value="Number of Likes" style="text;html=1;strokeColor=none;fillColor=none;align=center;verticalAlign=middle;whiteSpace=wrap;rounded=0;labelBackgroundColor=none;strokeWidth=0;fontSize=10;fontColor=#000000;movable=0;resizable=0;rotatable=0;deletable=0;editable=0;connectable=0;" vertex="1" parent="1">
                    <mxGeometry x="-835" y="610" width="85" height="30" as="geometry"/>
                </mxCell>
                <mxCell id="88" value="&lt;font style=&quot;font-size: 20px;&quot;&gt;Comments Section&lt;/font&gt;" style="rounded=0;whiteSpace=wrap;html=1;labelBackgroundColor=none;strokeColor=#000000;strokeWidth=0;fontSize=10;fontColor=#000000;fillColor=#999999;gradientColor=none;movable=0;resizable=0;rotatable=0;deletable=0;editable=0;connectable=0;" vertex="1" parent="1">
                    <mxGeometry x="-1100" y="675" width="360" height="155" as="geometry"/>
                </mxCell>
            </root>
        </mxGraphModel>
    </diagram>
</mxfile>